<svg viewBox="0 0 100 100" xmlns="http://www.w3.org/2000/svg">
<g clip-path="url(#clip0_446_165)">
<path d="M66.6588 48.082V51.7734C66.6588 53.375 66.4879 54.7568 66.1461 55.9189C65.8043 57.0713 65.3112 58.0186 64.6666 58.7607C64.0319 59.4932 63.275 60.0352 62.3961 60.3867C61.5172 60.7383 60.5406 60.9141 59.4664 60.9141C58.6071 60.9141 57.8063 60.8066 57.0641 60.5918C56.3219 60.3672 55.653 60.0205 55.0573 59.5518C54.4713 59.083 53.9635 58.4922 53.5338 57.7793C53.1139 57.0566 52.7916 56.1973 52.567 55.2012C52.3424 54.2051 52.2301 53.0625 52.2301 51.7734V48.082C52.2301 46.4805 52.401 45.1084 52.7428 43.9658C53.0944 42.8135 53.5875 41.8711 54.2223 41.1387C54.8668 40.4062 55.6285 39.8691 56.5074 39.5273C57.3864 39.1758 58.3629 39 59.4371 39C60.2965 39 61.0924 39.1123 61.8248 39.3369C62.567 39.5518 63.236 39.8887 63.8317 40.3477C64.4274 40.8066 64.9352 41.3975 65.3551 42.1201C65.775 42.833 66.0973 43.6875 66.3219 44.6836C66.5465 45.6699 66.6588 46.8027 66.6588 48.082ZM62.4254 52.3301V47.5107C62.4254 46.7393 62.3815 46.0654 62.2936 45.4893C62.2155 44.9131 62.0934 44.4248 61.9274 44.0244C61.7614 43.6143 61.5563 43.2822 61.3121 43.0283C61.068 42.7744 60.7897 42.5889 60.4772 42.4717C60.1647 42.3545 59.818 42.2959 59.4371 42.2959C58.9586 42.2959 58.5338 42.3887 58.1627 42.5742C57.8014 42.7598 57.4938 43.0576 57.2399 43.4678C56.986 43.8682 56.7906 44.4053 56.6539 45.0791C56.527 45.7432 56.4635 46.5537 56.4635 47.5107V52.3301C56.4635 53.1016 56.5026 53.7803 56.5807 54.3662C56.6686 54.9521 56.7955 55.4551 56.9615 55.875C57.1373 56.2852 57.3424 56.6221 57.5768 56.8857C57.8209 57.1396 58.0992 57.3252 58.4117 57.4424C58.734 57.5596 59.0856 57.6182 59.4664 57.6182C59.9352 57.6182 60.3502 57.5254 60.7115 57.3398C61.0826 57.1445 61.3951 56.8418 61.649 56.4316C61.9127 56.0117 62.108 55.4648 62.235 54.791C62.3619 54.1172 62.4254 53.2969 62.4254 52.3301Z" />
<path d="M38.8965 50.9092L35.5273 50.1035L36.7432 39.293H48.7256V42.7061H40.2148L39.6875 47.4375C39.9707 47.2715 40.4004 47.0957 40.9766 46.9102C41.5527 46.7148 42.1973 46.6172 42.9102 46.6172C43.9453 46.6172 44.8633 46.7783 45.6641 47.1006C46.4648 47.4229 47.1436 47.8916 47.7002 48.5068C48.2666 49.1221 48.6963 49.874 48.9893 50.7627C49.2822 51.6514 49.4287 52.6572 49.4287 53.7803C49.4287 54.7275 49.2822 55.6309 48.9893 56.4902C48.6963 57.3398 48.252 58.1016 47.6562 58.7754C47.0605 59.4395 46.3135 59.9619 45.415 60.3428C44.5166 60.7236 43.4521 60.9141 42.2217 60.9141C41.3037 60.9141 40.415 60.7773 39.5557 60.5039C38.7061 60.2305 37.9395 59.8252 37.2559 59.2881C36.582 58.751 36.04 58.1016 35.6299 57.3398C35.2295 56.5684 35.0195 55.6895 35 54.7031H39.1895C39.248 55.3086 39.4043 55.8311 39.6582 56.2705C39.9219 56.7002 40.2686 57.0322 40.6982 57.2666C41.1279 57.501 41.6309 57.6182 42.207 57.6182C42.7441 57.6182 43.2031 57.5156 43.584 57.3105C43.9648 57.1055 44.2725 56.8223 44.5068 56.4609C44.7412 56.0898 44.9121 55.6602 45.0195 55.1719C45.1367 54.6738 45.1953 54.1367 45.1953 53.5605C45.1953 52.9844 45.127 52.4619 44.9902 51.9932C44.8535 51.5244 44.6436 51.1191 44.3604 50.7773C44.0771 50.4355 43.7158 50.1719 43.2764 49.9863C42.8467 49.8008 42.3438 49.708 41.7676 49.708C40.9863 49.708 40.3809 49.8301 39.9512 50.0742C39.5312 50.3184 39.1797 50.5967 38.8965 50.9092Z" />
<path d="M82 50C82 67.6731 67.6731 82 50 82C32.3269 82 18 67.6731 18 50C18 32.3269 32.3269 18 50 18C67.6731 18 82 32.3269 82 50Z" />
<path fill-rule="evenodd" clip-rule="evenodd" d="M50 94C74.3005 94 94 74.3005 94 50C94 25.6995 74.3005 6 50 6C25.6995 6 6 25.6995 6 50C6 74.3005 25.6995 94 50 94ZM50 100C77.6142 100 100 77.6142 100 50C100 22.3858 77.6142 0 50 0C22.3858 0 0 22.3858 0 50C0 77.6142 22.3858 100 50 100Z" />
</g>
<defs>
<clipPath id="clip0_446_165">
<rect width="100" height="100" fill="white"/>
</clipPath>
</defs>
</svg>
