<svg viewBox="0 0 100 100" xmlns="http://www.w3.org/2000/svg">
<g clip-path="url(#clip0_446_208)">
<path d="M73 50C73 67.6731 58.6731 82 41 82C23.3269 82 9 67.6731 9 50C9 32.3269 23.3269 18 41 18C58.6731 18 73 32.3269 73 50Z" />
<path fill-rule="evenodd" clip-rule="evenodd" d="M38.0004 2.952C38.0269 1.29536 39.3914 -0.0261307 41.048 0.00037384C57.4663 0.263069 70.0249 6.53194 78.463 15.9691C86.8575 25.3577 91.0295 37.7157 91.0625 49.9919C91.0955 62.2684 86.9895 74.6333 78.6056 84.0287C70.178 93.473 57.5841 99.7371 41.0476 99.9996C39.391 100.026 38.0267 98.7043 38.0004 97.0476C37.9741 95.391 39.2957 94.0267 40.9524 94.0004C55.9159 93.7629 66.8846 88.152 74.1288 80.0338C81.4168 71.8667 85.092 60.9816 85.0625 50.0081C85.033 39.0343 81.2987 28.1423 73.9902 19.9684C66.7251 11.843 55.7837 6.23692 40.952 5.99961C39.2954 5.9731 37.9739 4.60864 38.0004 2.952Z" />
</g>
<defs>
<clipPath id="clip0_446_208">
<rect width="100" height="100" fill="white"/>
</clipPath>
</defs>
</svg>
