<svg width="100" height="100" viewBox="0 0 100 100" xmlns="http://www.w3.org/2000/svg">
<g clip-path="url(#clip0_446_198)">
<path d="M82 41C82 58.6731 67.6731 73 50 73C32.3269 73 18 58.6731 18 41C18 23.3269 32.3269 9 50 9C67.6731 9 82 23.3269 82 41Z" />
<path fill-rule="evenodd" clip-rule="evenodd" d="M97.048 38.0004C98.7046 38.0269 100.026 39.3914 99.9996 41.048C99.7369 57.4663 93.4681 70.0249 84.0309 78.463C74.6423 86.8575 62.2843 91.0295 50.0081 91.0625C37.7316 91.0955 25.3667 86.9895 15.9713 78.6056C6.52704 70.178 0.26287 57.5841 0.00038568 41.0476C-0.0259102 39.391 1.29575 38.0267 2.95239 38.0004C4.60904 37.9741 5.97333 39.2957 5.99963 40.9524C6.23715 55.9159 11.848 66.8846 19.9662 74.1288C28.1333 81.4168 39.0184 85.092 49.9919 85.0625C60.9657 85.033 71.8577 81.2987 80.0316 73.9902C88.157 66.7251 93.7631 55.7837 94.0004 40.952C94.0269 39.2954 95.3914 37.9739 97.048 38.0004Z" />
</g>
<defs>
<clipPath id="clip0_446_198">
<rect width="100" height="100" fill="white"/>
</clipPath>
</defs>
</svg>
