<svg viewBox="0 0 100 100" xmlns="http://www.w3.org/2000/svg">
<g clip-path="url(#clip0_446_215)">
<path d="M85.734 40.0028C85.4123 38.9965 84.7921 38.1103 83.9549 37.4604C83.1177 36.8106 82.1024 36.4274 81.0423 36.3611L61.9542 35.0514L54.8845 17.3222C54.4985 16.346 53.8265 15.5075 52.9557 14.9152C52.0848 14.3228 51.0552 14.004 50 14C48.9448 14.004 47.9152 14.3228 47.0443 14.9152C46.1735 15.5075 45.5015 16.346 45.1155 17.3222L37.9173 35.1472L18.9577 36.3611C17.8988 36.4317 16.8857 36.8165 16.0493 37.4657C15.2128 38.115 14.5916 38.9988 14.266 40.0028C13.9316 41.0222 13.9121 42.1178 14.2099 43.1484C14.5077 44.1789 15.1093 45.0972 15.937 45.7847L30.5262 58.0514L26.188 75.0139C25.8879 76.1614 25.9419 77.3721 26.3431 78.4887C26.7442 79.6053 27.474 80.5761 28.4375 81.275C29.3727 81.9422 30.4869 82.3169 31.6376 82.3511C32.7883 82.3852 33.923 82.0773 34.8966 81.4667L49.9679 71.9792H50.0321L66.2603 82.1694C67.0927 82.7072 68.0632 82.9955 69.056 83C69.8666 82.9937 70.6649 82.8027 71.3897 82.4417C72.1144 82.0807 72.7462 81.5593 73.2366 80.9176C73.7269 80.2759 74.0627 79.531 74.2182 78.7401C74.3736 77.9493 74.3446 77.1335 74.1333 76.3555L69.538 57.7958L84.063 45.7847C84.8907 45.0972 85.4923 44.1789 85.7901 43.1484C86.0879 42.1178 86.0684 41.0222 85.734 40.0028Z" />
<path fill-rule="evenodd" clip-rule="evenodd" d="M50 94C74.3005 94 94 74.3005 94 50C94 25.6995 74.3005 6 50 6C25.6995 6 6 25.6995 6 50C6 74.3005 25.6995 94 50 94ZM50 100C77.6142 100 100 77.6142 100 50C100 22.3858 77.6142 0 50 0C22.3858 0 0 22.3858 0 50C0 77.6142 22.3858 100 50 100Z" />
</g>
<defs>
<clipPath id="clip0_446_215">
<rect width="100" height="100" />
</clipPath>
</defs>
</svg>
