<svg width="32" height="32" viewBox="0 0 100 100" xmlns="http://www.w3.org/2000/svg">
<path d="M99.6306 38.3303C99.1837 36.9243 98.3224 35.6862 97.1596 34.7782C95.9968 33.8703 94.5867 33.3349 93.1143 33.2423L66.603 31.4124L56.784 6.64171C56.2479 5.27778 55.3146 4.10619 54.1051 3.27863C52.8956 2.45107 51.4655 2.00564 50 2C48.5345 2.00564 47.1044 2.45107 45.8949 3.27863C44.6854 4.10619 43.7521 5.27778 43.216 6.64171L33.2184 31.5463L6.88566 33.2423C5.41507 33.3409 4.0079 33.8785 2.84619 34.7856C1.68448 35.6927 0.821685 36.9275 0.369419 38.3303C-0.0950169 39.7546 -0.122152 41.2854 0.291512 42.7252C0.705176 44.1651 1.54067 45.4481 2.69027 46.4087L22.9531 63.5473L16.9278 87.2468C16.511 88.85 16.586 90.5416 17.1431 92.1017C17.7003 93.6618 18.7139 95.0182 20.0521 95.9946C21.351 96.9269 22.8985 97.4503 24.4967 97.4981C26.0948 97.5458 27.6708 97.1155 29.023 96.2624L49.9554 83.0067H50.0446L72.5837 97.2443C73.7399 97.9956 75.0878 98.3985 76.4667 98.4047C77.5925 98.3959 78.7013 98.129 79.7079 97.6246C80.7145 97.1203 81.592 96.3918 82.273 95.4953C82.954 94.5987 83.4204 93.558 83.6363 92.453C83.8523 91.348 83.8119 90.2083 83.5185 89.1213L77.1362 63.1902L97.3097 46.4087C98.4593 45.4481 99.2948 44.1651 99.7085 42.7252C100.122 41.2854 100.095 39.7546 99.6306 38.3303Z" />
</svg>
