<svg viewBox="0 0 100 100" xmlns="http://www.w3.org/2000/svg">
<g clip-path="url(#clip0_446_222)">
<path d="M79.7303 38.3796C79.4041 37.3587 78.7753 36.4597 77.9265 35.8004C77.0776 35.1412 76.0483 34.7524 74.9735 34.6852L55.6202 33.3565L48.4523 15.3704C48.0609 14.38 47.3797 13.5293 46.4967 12.9284C45.6138 12.3275 44.5698 12.0041 43.5 12C42.4302 12.0041 41.3862 12.3275 40.5033 12.9284C39.6203 13.5293 38.939 14.38 38.5477 15.3704L31.2495 33.4537L12.0265 34.6852C10.953 34.7568 9.92577 35.1472 9.07772 35.8058C8.22967 36.4644 7.59983 37.3611 7.26968 38.3796C6.93064 39.4138 6.91083 40.5253 7.2128 41.5708C7.51478 42.6163 8.12469 43.5479 8.9639 44.2454L23.7558 56.6898L19.3573 73.8981C19.053 75.0623 19.1078 76.2906 19.5145 77.4233C19.9212 78.5561 20.6611 79.541 21.638 80.25C22.5862 80.9269 23.7159 81.307 24.8826 81.3417C26.0492 81.3763 27.1997 81.0639 28.1868 80.4444L43.4674 70.8194H43.5326L59.9861 81.1574C60.8301 81.703 61.8141 81.9955 62.8207 82C63.6425 81.9936 64.452 81.7998 65.1868 81.4336C65.9215 81.0673 66.5621 80.5384 67.0593 79.8874C67.5564 79.2364 67.8969 78.4807 68.0545 77.6784C68.2121 76.8761 68.1827 76.0485 67.9685 75.2593L63.3094 56.4306L78.0361 44.2454C78.8753 43.5479 79.4852 42.6163 79.7872 41.5708C80.0892 40.5253 80.0694 39.4138 79.7303 38.3796Z" />
<path fill-rule="evenodd" clip-rule="evenodd" d="M40.0004 2.952C40.0269 1.29536 41.3914 -0.0261307 43.048 0.00037384C59.4663 0.263069 72.0249 6.53194 80.463 15.9691C88.8575 25.3577 93.0295 37.7157 93.0625 49.9919C93.0955 62.2684 88.9895 74.6333 80.6056 84.0287C72.178 93.473 59.5841 99.7371 43.0476 99.9996C41.391 100.026 40.0267 98.7043 40.0004 97.0476C39.9741 95.391 41.2957 94.0267 42.9524 94.0004C57.9159 93.7629 68.8846 88.152 76.1288 80.0338C83.4168 71.8667 87.092 60.9816 87.0625 50.0081C87.033 39.0343 83.2987 28.1423 75.9902 19.9684C68.7251 11.843 57.7837 6.23692 42.952 5.99961C41.2954 5.9731 39.9739 4.60864 40.0004 2.952Z" />
</g>
<defs>
<clipPath id="clip0_446_222">
<rect width="100" height="100" fill="white"/>
</clipPath>
</defs>
</svg>
