<svg width="3400" height="267" viewBox="0 0 3400 267" fill="none" xmlns="http://www.w3.org/2000/svg">
<g clip-path="url(#clip0_477_80)">
<rect width="3400" height="267" fill="#0071B2"/>
<path d="M3078.53 135L3206 273H2951L3078.53 135Z" fill="white"/>
<path d="M3078.15 134L2951 -4L3206 -4L3078.15 134Z" fill="white"/>
<path d="M3219.5 133.5C3219.5 262.74 3114.95 367.5 2986 367.5C2857.05 367.5 2752.5 262.74 2752.5 133.5C2752.5 4.26038 2857.05 -100.5 2986 -100.5C3114.95 -100.5 3219.5 4.26038 3219.5 133.5Z" stroke="white" stroke-opacity="0.6" stroke-width="5"/>
<path d="M3270.5 133.5C3270.5 287.039 3146.25 411.5 2993 411.5C2839.75 411.5 2715.5 287.039 2715.5 133.5C2715.5 -20.0394 2839.75 -144.5 2993 -144.5C3146.25 -144.5 3270.5 -20.0394 3270.5 133.5Z" stroke="white" stroke-opacity="0.4" stroke-width="5"/>
<path d="M3321.5 133.5C3321.5 287.039 3197.25 411.5 3044 411.5C2890.75 411.5 2766.5 287.039 2766.5 133.5C2766.5 -20.0394 2890.75 -144.5 3044 -144.5C3197.25 -144.5 3321.5 -20.0394 3321.5 133.5Z" stroke="white" stroke-opacity="0.2" stroke-width="5"/>
<circle cx="3029.5" cy="133.5" r="338" stroke="white" stroke-opacity="0.1" stroke-width="5"/>
<path d="M3168.5 134C3168.5 212.709 3104.92 276.5 3026.5 276.5C2948.08 276.5 2884.5 212.709 2884.5 134C2884.5 55.2913 2948.08 -8.5 3026.5 -8.5C3104.92 -8.5 3168.5 55.2913 3168.5 134Z" stroke="white" stroke-opacity="0.8" stroke-width="5"/>
<circle cx="3032" cy="134" r="85.5" stroke="white" stroke-width="5"/>
<path d="M2953.2 -4L3079 134.5L2953.2 273H2571V-3.31095L2953.2 -4Z" fill="#0071B2"/>
<path d="M2625.95 129.34C2625.61 128.302 2624.96 127.388 2624.09 126.718C2623.22 126.047 2622.16 125.652 2621.05 125.584L2601.13 124.233L2593.75 105.944C2593.35 104.937 2592.65 104.072 2591.74 103.461C2590.83 102.85 2589.76 102.521 2588.66 102.516C2587.56 102.521 2586.48 102.85 2585.57 103.461C2584.66 104.072 2583.96 104.937 2583.56 105.944L2576.05 124.332L2556.26 125.584C2555.16 125.657 2554.1 126.054 2553.23 126.723C2552.36 127.393 2551.71 128.305 2551.37 129.34C2551.02 130.392 2551 131.522 2551.31 132.585C2551.62 133.649 2552.25 134.596 2553.11 135.305L2568.34 147.959L2563.81 165.457C2563.5 166.641 2563.55 167.89 2563.97 169.042C2564.39 170.194 2565.15 171.195 2566.16 171.916C2567.13 172.604 2568.29 172.991 2569.5 173.026C2570.7 173.061 2571.88 172.744 2572.9 172.114L2588.62 162.327H2588.69L2605.62 172.839C2606.49 173.394 2607.51 173.691 2608.54 173.696C2609.39 173.689 2610.22 173.492 2610.98 173.12C2611.73 172.747 2612.39 172.209 2612.9 171.547C2613.42 170.886 2613.77 170.117 2613.93 169.301C2614.09 168.485 2614.06 167.644 2613.84 166.841L2609.05 147.695L2624.2 135.305C2625.07 134.596 2625.69 133.649 2626 132.585C2626.32 131.522 2626.3 130.392 2625.95 129.34Z" fill="white"/>
<path fill-rule="evenodd" clip-rule="evenodd" d="M2588.57 190.211C2617.03 190.211 2640.1 167.137 2640.1 138.674C2640.1 110.21 2617.03 87.1361 2588.57 87.1361C2560.1 87.1361 2537.03 110.21 2537.03 138.674C2537.03 167.137 2560.1 190.211 2588.57 190.211ZM2588.57 197.239C2620.91 197.239 2647.13 171.019 2647.13 138.674C2647.13 106.329 2620.91 80.1082 2588.57 80.1082C2556.22 80.1082 2530 106.329 2530 138.674C2530 171.019 2556.22 197.239 2588.57 197.239Z" fill="white"/>
<path d="M2773.81 129.34C2773.48 128.302 2772.84 127.388 2771.98 126.718C2771.11 126.047 2770.07 125.652 2768.97 125.584L2749.3 124.233L2742.01 105.944C2741.61 104.937 2740.92 104.072 2740.02 103.461C2739.12 102.85 2738.06 102.521 2736.97 102.516C2735.88 102.521 2734.82 102.85 2733.92 103.461C2733.03 104.072 2732.33 104.937 2731.94 105.944L2724.51 124.332L2704.97 125.584C2703.88 125.657 2702.83 126.054 2701.97 126.723C2701.11 127.393 2700.47 128.305 2700.13 129.34C2699.79 130.392 2699.77 131.522 2700.07 132.585C2700.38 133.649 2701 134.596 2701.85 135.305L2716.89 147.959L2712.42 165.457C2712.11 166.641 2712.17 167.89 2712.58 169.042C2713 170.194 2713.75 171.195 2714.74 171.916C2715.71 172.604 2716.85 172.991 2718.04 173.026C2719.23 173.061 2720.4 172.744 2721.4 172.114L2736.94 162.327H2737L2753.74 172.839C2754.59 173.394 2755.59 173.691 2756.62 173.696C2757.45 173.689 2758.28 173.492 2759.02 173.12C2759.77 172.747 2760.42 172.209 2760.93 171.547C2761.43 170.886 2761.78 170.117 2761.94 169.301C2762.1 168.485 2762.07 167.644 2761.85 166.841L2757.11 147.695L2772.09 135.305C2772.94 134.596 2773.56 133.649 2773.87 132.585C2774.18 131.522 2774.16 130.392 2773.81 129.34Z" fill="white" fill-opacity="0.6"/>
<path fill-rule="evenodd" clip-rule="evenodd" d="M2737.01 83.566C2737.04 81.6255 2738.64 80.0776 2740.58 80.1087C2759.81 80.4164 2774.52 87.7592 2784.4 98.813C2794.24 109.81 2799.12 124.285 2799.16 138.664C2799.2 153.044 2794.39 167.527 2784.57 178.532C2774.7 189.594 2759.95 196.931 2740.58 197.239C2738.64 197.27 2737.04 195.722 2737.01 193.781C2736.98 191.841 2738.53 190.243 2740.47 190.212C2757.99 189.934 2770.84 183.362 2779.33 173.853C2787.86 164.286 2792.17 151.537 2792.13 138.683C2792.1 125.83 2787.72 113.072 2779.16 103.497C2770.65 93.9801 2757.84 87.4136 2740.47 87.1357C2738.53 87.1046 2736.98 85.5064 2737.01 83.566Z" fill="white" fill-opacity="0.6"/>
<path d="M2946.35 138.106C2946.35 157.762 2930.41 173.696 2910.76 173.696C2891.1 173.696 2875.17 157.762 2875.17 138.106C2875.17 118.45 2891.1 102.516 2910.76 102.516C2930.41 102.516 2946.35 118.45 2946.35 138.106Z" fill="white" fill-opacity="0.2"/>
<path fill-rule="evenodd" clip-rule="evenodd" d="M2910.45 190.211C2938.92 190.211 2961.99 167.137 2961.99 138.674C2961.99 110.21 2938.92 87.1361 2910.45 87.1361C2881.99 87.1361 2858.91 110.21 2858.91 138.674C2858.91 167.137 2881.99 190.211 2910.45 190.211ZM2910.45 197.239C2942.8 197.239 2969.02 171.019 2969.02 138.674C2969.02 106.329 2942.8 80.1082 2910.45 80.1082C2878.11 80.1082 2851.89 106.329 2851.89 138.674C2851.89 171.019 2878.11 197.239 2910.45 197.239Z" fill="white" fill-opacity="0.2"/>
</g>
<defs>
<clipPath id="clip0_477_80">
<rect width="3400" height="267" fill="white"/>
</clipPath>
</defs>
</svg>
