<svg width="1333" height="917" viewBox="0 0 1333 917" fill="none" xmlns="http://www.w3.org/2000/svg">
<rect width="1333" height="917" fill="#0071B2"/>
<path d="M974.803 329.895C975.511 328.63 975.816 327.174 975.679 325.718C975.542 324.261 974.97 322.873 974.036 321.734L957.352 301.121L968.49 277.412C969.107 276.11 969.315 274.646 969.089 273.209C968.862 271.772 968.212 270.429 967.221 269.353C966.222 268.285 964.931 267.536 963.515 267.204C962.098 266.871 960.623 266.97 959.278 267.488L934.589 276.792L915.492 258.662C914.422 257.653 913.081 256.982 911.64 256.737C910.199 256.493 908.726 256.686 907.41 257.291C906.071 257.901 904.953 258.903 904.198 260.166C903.444 261.429 903.089 262.897 903.179 264.378L904.618 290.634L883.492 302.039C882.057 302.804 880.892 303.988 880.148 305.436C879.405 306.885 879.119 308.531 879.325 310.161C879.537 311.733 880.212 313.215 881.262 314.415C882.313 315.616 883.692 316.482 885.224 316.902L908.964 323.368L909.024 323.434L914.093 349.419C914.338 350.766 914.964 352.021 915.895 353.033C916.666 353.851 917.611 354.484 918.657 354.884C919.703 355.283 920.822 355.439 921.929 355.339C923.036 355.239 924.1 354.886 925.041 354.307C925.982 353.727 926.774 352.937 927.356 351.998L941.662 330.028L967.421 333.587C968.892 333.787 970.381 333.542 971.697 332.884C973.013 332.226 974.095 331.185 974.803 329.895Z" fill="white"/>
<path fill-rule="evenodd" clip-rule="evenodd" d="M881.765 348.51C907.486 376.22 950.8 377.832 978.51 352.111C1006.22 326.39 1007.83 283.076 982.111 255.366C956.39 227.656 913.076 226.044 885.366 251.765C857.656 277.486 856.044 320.8 881.765 348.51ZM874.923 354.861C904.151 386.349 953.372 388.182 984.861 358.953C1016.35 329.725 1018.18 280.504 988.953 249.015C959.725 217.527 910.504 215.694 879.015 244.923C847.527 274.151 845.694 323.372 874.923 354.861Z" fill="white"/>
<path d="M1108.42 473.846C1109.13 472.585 1109.45 471.137 1109.32 469.691C1109.19 468.245 1108.63 466.868 1107.71 465.743L1091.24 445.363L1102.46 421.741C1103.08 420.443 1103.3 418.987 1103.08 417.561C1102.86 416.135 1102.22 414.804 1101.25 413.741C1100.26 412.686 1098.98 411.95 1097.57 411.628C1096.17 411.306 1094.7 411.413 1093.36 411.936L1068.75 421.327L1049.87 403.43C1048.81 402.433 1047.48 401.775 1046.05 401.54C1044.62 401.306 1043.15 401.506 1041.84 402.116C1040.5 402.73 1039.39 403.732 1038.63 404.992C1037.87 406.251 1037.51 407.711 1037.59 409.183L1038.86 435.26L1017.79 446.719C1016.35 447.487 1015.19 448.67 1014.44 450.113C1013.69 451.557 1013.4 453.194 1013.59 454.813C1013.8 456.373 1014.46 457.841 1015.5 459.028C1016.53 460.214 1017.9 461.066 1019.42 461.474L1042.99 467.757L1043.05 467.821L1047.93 493.608C1048.17 494.945 1048.78 496.188 1049.7 497.189C1050.47 497.996 1051.4 498.619 1052.44 499.01C1053.48 499.401 1054.59 499.549 1055.69 499.443C1056.79 499.337 1057.85 498.98 1058.79 498.399C1059.73 497.818 1060.52 497.028 1061.11 496.091L1075.46 474.177L1101.06 477.559C1102.52 477.749 1104 477.497 1105.32 476.835C1106.63 476.173 1107.71 475.132 1108.42 473.846Z" fill="white" fill-opacity="0.6"/>
<path fill-rule="evenodd" clip-rule="evenodd" d="M1119.73 396.653C1121.65 394.93 1124.6 395.087 1126.32 397.005C1143.4 416.004 1149.54 436.96 1147.71 456.571C1145.89 476.081 1136.22 493.919 1122.25 506.95C1108.29 519.982 1089.84 528.388 1070.26 528.772C1050.57 529.158 1030.09 521.428 1012.29 502.849C1010.51 500.988 1010.57 498.033 1012.43 496.25C1014.29 494.466 1017.25 494.529 1019.03 496.391C1035.14 513.202 1053.15 519.771 1070.07 519.439C1087.1 519.105 1103.4 511.774 1115.88 500.125C1128.37 488.476 1136.83 472.69 1138.42 455.704C1139.99 438.819 1134.81 420.409 1119.38 403.245C1117.65 401.328 1117.81 398.377 1119.73 396.653Z" fill="white" fill-opacity="0.6"/>
<path d="M1255.8 649.735C1236.67 667.497 1206.75 666.383 1188.99 647.248C1171.23 628.113 1172.34 598.202 1191.48 580.44C1210.62 562.678 1240.53 563.792 1258.29 582.927C1276.05 602.062 1274.94 631.973 1255.8 649.735Z" fill="white" fill-opacity="0.2"/>
<path fill-rule="evenodd" clip-rule="evenodd" d="M1172.64 661.876C1198.36 689.586 1241.67 691.198 1269.38 665.477C1297.09 639.756 1298.71 596.441 1272.99 568.731C1247.26 541.021 1203.95 539.409 1176.24 565.13C1148.53 590.851 1146.92 634.166 1172.64 661.876ZM1165.8 668.226C1195.03 699.715 1244.25 701.547 1275.74 672.319C1307.22 643.09 1309.06 593.869 1279.83 562.381C1250.6 530.892 1201.38 529.06 1169.89 558.288C1138.4 587.517 1136.57 636.738 1165.8 668.226Z" fill="white" fill-opacity="0.2"/>
<path d="M967.028 609H1096.5C1097.05 609 1097.5 609.452 1097.5 610.004C1098.02 680.264 1152.89 739.981 1229.99 740.497C1230.54 740.5 1231 740.948 1231 741.5V868C1231 868.552 1230.54 869 1229.99 868.998C1071.45 868.517 970.472 754.734 966.03 610.033C966.013 609.47 966.465 609 967.028 609Z" stroke="white" stroke-opacity="0.2" stroke-width="9"/>
<path d="M932 44.0279V173.5C932 174.052 932.452 174.5 933.004 174.504C1003.26 175.022 1062.98 229.889 1063.5 306.992C1063.5 307.545 1063.95 308 1064.5 308L1191 308C1191.55 308 1192 307.542 1192 306.989C1191.52 148.449 1077.73 47.4716 933.033 43.0301C932.47 43.0128 932 43.4648 932 44.0279Z" stroke="white" stroke-opacity="0.6" stroke-width="9"/>
</svg>
